{"title":"Flying Tigers   (War 1942)   John Wayne, John Carroll &amp; Anna","uid":9280774,"size":409908130,"categoryP":"video","categoryS":"movies","magnet":"?xt=urn:btih:054957168bd07353e7c9f536501fac717b3417ff&amp;dn=Flying+Tigers+++%28War+1942%29+++John+Wayne%2C+John+Carroll+%26amp%3B+Anna&amp;tr=udp%3A%2F%2Ftracker.openbittorrent.com%3A80&amp;tr=udp%3A%2F%2Fopen.demonii.com%3A1337&amp;tr=udp%3A%2F%2Ftracker.coppersurfer.tk%3A6969&amp;tr=udp%3A%2F%2Fexodus.desync.com%3A6969","seeders":4,"leechers":2,"uploader":"BurtonW","files":7,"time":1385936660,"description":" &lt;a href=&quot;http://www.imdb.com/title/tt0034742/?ref_=fn_al_tt_1&quot; rel=&quot;nofollow&quot; target=&quot;_NEW&quot;&gt;http://www.imdb.com/title/tt0034742/?ref_=fn_al_tt_1&lt;/a&gt;\n\n\nGood quality Black &amp; White film.\n\n\nNo subtitles!\n\n\nStoryline:\n\nJim Gordon(John Wayne) commands a unit of the famed Flying Tigers, the American Volunteer Group which fought the Japanese in China before America's entry into World War II. Gordon must send his outnumbered band of fighter pilots out against overwhelming odds while juggling the disparate personalities and problems of his fellow flyers. In particular, he must handle the difficulties created by a reckless hot-shot pilot named Woody Jason, who not only wants to fight a one-man war but to waltz off with Gordon's girlfriend.\n\n\nTechnical info:\n\nGeneral:\n\nComplete name                  : John Wayne - Flying Tigers   (War 1942)   John Wayne, John Carroll &amp; Anna Lee.mp4\nFormat                         : MPEG-4\nFormat profile                 : Base Media / Version 2\nCodec ID                       : mp42\nFile size                      : 387 MiB\nDuration                       : 1h 41mn\nOverall bit rate mode          : Variable\nOverall bit rate               : 533 Kbps\nEncoded date                   : UTC 2013-12-01 17:47:15\nTagged date                    : UTC 2013-12-01 20:36:39\n\nVideo:\n\nID                             : 1\nFormat                         : AVC\nFormat/Info                    : Advanced Video Codec\nFormat profile                 : &lt;a class=&quot;__cf_email__&quot; href=&quot;/cdn-cgi/l/email-protection&quot; data-cfemail=&quot;bbf6dad2d5fbf78f958b&quot;&gt;[email&amp;#160;protected]&lt;/a&gt;&lt;script cf-hash='f9e31' type=&quot;text/javascript&quot;&gt;\n/* &lt;![CDATA[ */!function(){try{var t=&quot;currentScript&quot;in document?document.currentScript:function(){for(var t=document.getElementsByTagName(&quot;script&quot;),e=t.length;e--;)if(t[e].getAttribute(&quot;cf-hash&quot;))return t[e]}();if(t&amp;&amp;t.previousSibling){var e,r,n,i,c=t.previousSibling,a=c.getAttribute(&quot;data-cfemail&quot;);if(a){for(e=&quot;&quot;,r=parseInt(a.substr(0,2),16),n=2;a.length-n;n+=2)i=parseInt(a.substr(n,2),16)^r,e+=String.fromCharCode(i);e=document.createTextNode(e),c.parentNode.replaceChild(e,c)}}}catch(u){}}();/* ]]&gt; */&lt;/script&gt;\nFormat settings, CABAC         : Yes\nFormat settings, ReFrames      : 16 frames\nCodec ID                       : avc1\nCodec ID/Info                  : Advanced Video Coding\nDuration                       : 1h 41mn\nBit rate mode                  : Variable\nBit rate                       : 368 Kbps\nWidth                          : 400 pixels\nHeight                         : 304 pixels\nDisplay aspect ratio           : 4:3\nFrame rate mode                : Variable\nFrame rate                     : 23.976 fps\nMinimum frame rate             : 23.974 fps\nMaximum frame rate             : 90 000.000 fps\nColor space                    : YUV\nChroma subsampling             : 4:2:0\nBit depth                      : 8 bits\nScan type                      : Progressive\nBits/(Pixel*Frame)             : 0.126\nStream size                    : 267 MiB (69%)\nWriting library                : x264 core 130 r2273 b3065e6\nEncoding settings              : Deleted\nEncoded date                   : UTC 2013-12-01 17:47:15\nTagged date                    : UTC 2013-12-01 20:36:39\nColor primaries                : BT.601 NTSC\nTransfer characteristics       : BT.709\nMatrix coefficients            : BT.601\n\nAudio:\n\nID                             : 2\nFormat                         : AAC\nFormat/Info                    : Advanced Audio Codec\nFormat profile                 : LC\nCodec ID                       : 40\nDuration                       : 1h 41mn\nBit rate mode                  : Variable\nBit rate                       : 160 Kbps\nMaximum bit rate               : 266 Kbps\nChannel(s)                     : 2 channels\nChannel positions              : Front: L R\nSampling rate                  : 48.0 KHz\nCompression mode               : Lossy\nDelay relative to video        : 83ms\nStream size                    : 116 MiB (30%)\nEncoded date                   : UTC 2013-12-01 17:47:15\nTagged date                    : UTC 2013-12-01 20:36:38\n\n","torrent":{"xt":"urn:btih:054957168bd07353e7c9f536501fac717b3417ff","amp;dn":"Flying+Tigers+++%28War+1942%29+++John+Wayne%2C+John+Carroll+%26amp%3B+Anna","amp;tr":["udp%3A%2F%2Ftracker.openbittorrent.com%3A80","udp%3A%2F%2Fopen.demonii.com%3A1337","udp%3A%2F%2Ftracker.coppersurfer.tk%3A6969","udp%3A%2F%2Fexodus.desync.com%3A6969"],"infoHash":"054957168bd07353e7c9f536501fac717b3417ff","infoHashBuffer":{"type":"Buffer","data":[5,73,87,22,139,208,115,83,231,201,245,54,80,31,172,113,123,52,23,255]},"announce":[],"urlList":[]}}